<?xml version="1.0" standalone="no"?>
<!DOCTYPE svg PUBLIC "-//W3C//DTD SVG 20010904//EN"
 "http://www.w3.org/TR/2001/REC-SVG-20010904/DTD/svg10.dtd">
<svg version="1.0" xmlns="http://www.w3.org/2000/svg"
 width="512.000000pt" height="512.000000pt" viewBox="0 0 512.000000 512.000000"
 preserveAspectRatio="xMidYMid meet">
<metadata>
Created by potrace 1.11, written by Peter Selinger 2001-2013
</metadata>
<g transform="translate(0.000000,512.000000) scale(0.100000,-0.100000)"
fill="#000000" stroke="none">
<path d="M1 3678 c0 -1400 1 -1442 18 -1398 10 25 121 314 246 643 l228 597
111 0 111 0 360 -942 c198 -518 363 -950 367 -960 7 -18 1 -18 -124 -16 l-132
3 -90 247 -89 248 -403 0 c-373 0 -402 -1 -409 -18 -3 -9 -43 -118 -87 -242
-44 -124 -87 -230 -94 -236 -12 -9 -14 -143 -14 -808 l0 -796 2560 0 2560 0 0
1655 0 1655 -190 0 -190 0 0 -855 0 -855 -125 0 -125 0 0 855 0 855 -310 0
-310 0 0 105 0 105 625 0 625 0 0 800 0 800 -2560 0 -2560 0 1 -1442z m1877
-820 c84 -365 160 -717 170 -783 l18 -120 27 113 c22 92 315 1137 388 1385
l20 68 107 -3 106 -3 159 -570 c87 -313 182 -664 212 -780 29 -115 54 -205 55
-200 6 78 65 364 187 901 l148 654 129 0 c98 0 127 -3 124 -12 -3 -7 -108
-439 -234 -960 l-229 -948 -117 0 c-65 0 -118 3 -118 6 0 3 -90 324 -199 712
-110 389 -203 725 -207 747 -12 69 -20 70 -33 4 -7 -35 -104 -378 -217 -761
-112 -384 -204 -700 -204 -703 0 -3 -53 -4 -117 -3 l-118 3 -187 775 c-103
426 -207 857 -231 958 l-44 182 126 0 127 0 152 -662z"/>
<path d="M592 3174 c-33 -82 -311 -858 -308 -861 1 -2 147 -2 324 -1 l320 3
-154 425 c-189 521 -167 470 -182 434z"/>
</g>
</svg>
